<svg width="128" height="128" viewBox="0 0 128 128" fill="none" xmlns="http://www.w3.org/2000/svg">
<path d="M76.8001 60.8002L31.6001 14.8002C29.8001 13.0002 27.0001 13.0002 25.2001 14.8002C23.4001 16.6002 23.4001 19.4002 25.2001 21.2002L67.2001 64.0002L25.2001 106.8C23.4001 108.6 23.4001 111.4 25.2001 113.2C26.0001 114 27.2001 114.4 28.4001 114.4C29.6001 114.4 30.8001 114 31.6001 113L76.8001 67.0002C78.6001 65.4002 78.6001 62.6002 76.8001 60.8002Z" fill="#E5E7EB"/>
<path d="M102.8 60.8002L57.6001 14.8002C55.8001 13.0002 53.0001 13.0002 51.2001 14.8002C49.4001 16.6002 49.4001 19.4002 51.2001 21.2002L93.2001 64.0002L51.2001 106.8C49.4001 108.6 49.4001 111.4 51.2001 113.2C52.0001 114 53.2001 114.4 54.4001 114.4C55.6001 114.4 56.8001 114 57.6001 113L102.8 67.0002C104.6 65.4002 104.6 62.6002 102.8 60.8002Z" fill="#E5E7EB"/>
</svg>
