<svg width="128" height="128" viewBox="0 0 128 128" fill="none" xmlns="http://www.w3.org/2000/svg">
<path d="M64 115.2C62.4 115.2 60.8 114.6 59.6 113.6C55 109.6 50.4 105.8 46.4 102.4C34.8 92.5998 24.6 83.9998 17.6 75.5998C9.6 65.9998 6 57.1998 6 47.3998C6 37.9998 9.2 29.1998 15.2 22.7998C21.2 16.3998 29.4 12.7998 38.4 12.7998C45 12.7998 51.2 14.9998 56.6 18.9998C58.8 20.5998 60.6 22.5998 62.4 24.7998C63.2 25.7998 64.6 25.7998 65.4 24.7998C67.2 22.5998 69.2 20.7998 71.2 18.9998C76.6 14.7998 82.8 12.7998 89.4 12.7998C98.4 12.7998 106.6 16.3998 112.6 22.7998C118.6 29.1998 121.8 37.9998 121.8 47.3998C121.8 57.1998 118.2 65.9998 110.2 75.3998C103.2 83.7998 93 92.3998 81.4 102.2C77.4 105.6 72.8 109.4 68.2 113.4C67.2 114.6 65.6 115.2 64 115.2Z" fill="#E5E7EB"/>
</svg>
