<svg width="128" height="128" viewBox="0 0 128 128" fill="none" xmlns="http://www.w3.org/2000/svg">
<g clip-path="url(#clip0_221_2310)">
<path fill-rule="evenodd" clip-rule="evenodd" d="M110.271 47.5749C116.204 52.5331 120.491 56.1161 123.429 59.4543L123.426 59.465C125.791 62.1514 128.816 66.3469 127.797 71.7374C126.794 77.0297 122.49 80.0143 119.341 81.7986C115.38 84.0435 110.049 86.1231 102.674 89L102.619 89.0217L98.9355 90.4577C95.3149 91.8687 93.6824 92.5278 92.8518 93.3387C92.0212 94.1514 91.321 95.7767 89.8189 99.374L88.2899 103.034C85.2195 110.389 82.9993 115.701 80.6558 119.625C78.7946 122.74 75.7063 126.982 70.3996 127.848C69.7637 127.952 69.1457 128 68.5455 128C64.0408 128 60.5721 125.289 58.2625 123.126C55.0216 120.092 51.5759 115.701 46.8085 109.625L46.7881 109.599L44.4179 106.577C42.1244 103.657 41.0742 102.346 40.1596 101.876C39.1898 101.378 37.2553 101.278 33.7437 101.098L29.8552 100.898L29.7718 100.893C21.988 100.492 16.3558 100.201 11.9845 99.3114C8.43362 98.5881 3.44127 97.0592 1.09423 92.1402C-1.22065 87.2891 0.617324 82.3541 2.19987 79.0641C4.17896 74.9507 7.39764 70.1532 11.8541 63.5142L14.0708 60.2099C16.2499 56.9609 17.2234 55.4785 17.4342 54.3621C17.6414 53.269 17.2734 51.5937 16.4196 47.9071L15.5444 44.1259L15.5327 44.0754C13.7776 36.4874 12.5089 31.0023 12.1542 26.5202C11.872 22.9462 11.947 17.7575 15.8373 13.9531C19.7365 10.1415 24.92 10.204 28.4781 10.5845C32.9435 11.0614 38.386 12.4867 45.9201 14.4604L49.6603 15.4409C53.2987 16.3929 54.9527 16.8073 56.0352 16.6305C57.1885 16.4413 58.8717 15.367 61.9249 13.4184L61.9295 13.4155L65.2768 11.2775L65.2846 11.2725C72.0091 6.9795 76.8689 3.87691 81.0166 2.00043C84.3442 0.494737 89.3205 -1.2235 94.1057 1.23955C99.5571 4.04553 100.843 9.95935 101.422 15.9339C101.659 18.388 99.8607 20.5707 97.4065 20.8082C94.9523 21.0458 92.7696 19.2471 92.5321 16.793C91.9623 10.8971 90.8888 9.62713 90.0189 9.17882C87.3274 7.79473 80.0947 12.4125 70.0866 18.8021L70.0834 18.8042L66.7361 20.9404C62.6797 23.5302 60.4452 24.9556 57.4748 25.4414C54.4773 25.9305 51.8134 25.2331 47.4035 24.0784L47.3972 24.0768L43.657 23.0962C36.7713 21.2922 31.3306 19.8669 27.5314 19.4615C23.9108 19.0757 22.7462 19.6865 22.0818 20.3349C21.4138 20.9886 20.7689 22.1496 21.0583 25.8129C21.3602 29.6423 22.6337 35.1435 24.2466 42.1076L25.1218 45.8888C26.1543 50.3452 26.7758 53.035 26.2114 56.0196C25.6512 58.9778 24.1748 61.1785 21.4974 65.1695L21.4888 65.1824L19.2721 68.4849C12.6347 78.3764 7.83883 85.5244 9.15702 88.2876C10.427 90.9489 18.7684 91.3775 30.316 91.9705L34.2045 92.1706C38.7968 92.4063 41.5689 92.5492 44.2464 93.9263C46.9346 95.3088 48.6315 97.47 51.4411 101.051L53.815 104.077C60.8364 113.025 65.5662 119.052 68.6116 119.052C68.7313 119.052 68.8474 119.041 68.9617 119.023C72.1477 118.503 75.2909 110.977 80.048 99.5867L80.0503 99.5812L81.5775 95.9232L81.5785 95.9207C83.4265 91.4963 84.4447 89.0588 86.6091 86.9426C88.7757 84.8243 91.2299 83.8669 95.6865 82.129L99.3749 80.6912L99.3775 80.6902C110.843 76.2183 118.417 73.2643 119.023 70.0656C119.602 67.0114 113.611 62.0051 104.543 54.4269L104.542 54.4264L101.599 51.9652L101.597 51.9637C98.1078 49.0479 96.0006 47.2869 94.6969 44.5546C94.1628 43.4365 93.8145 42.2594 93.5984 40.8502C93.2251 38.4121 94.8988 36.1331 97.3369 35.7598C99.7768 35.3865 102.054 37.06 102.427 39.4981C102.531 40.1732 102.658 40.5001 102.758 40.7091C103.204 41.645 104.482 42.7363 107.327 45.1136L110.271 47.5749ZM102.517 102.517C104.26 100.773 107.087 100.773 108.831 102.517L120.739 114.425C122.483 116.168 122.483 118.996 120.739 120.739C118.996 122.483 116.168 122.483 114.425 120.739L102.517 108.831C100.773 107.087 100.773 104.26 102.517 102.517Z" fill="#E5E7EB"/>
</g>
<defs>
<clipPath id="clip0_221_2310">
<rect width="128" height="128" fill="white"/>
</clipPath>
</defs>
</svg>
