<svg width="128" height="128" viewBox="0 0 128 128" fill="none" xmlns="http://www.w3.org/2000/svg">
<g clip-path="url(#clip0_221_2307)">
<path d="M117.225 63.959L127.113 49.1258C127.57 48.3961 127.859 47.574 127.96 46.719C128.06 45.864 127.97 44.9973 127.695 44.1814C127.445 43.3575 126.996 42.608 126.387 41.9992C125.778 41.3904 125.029 40.9412 124.205 40.6913L107.045 33.711L105.591 16.551C105.565 15.7239 105.371 14.9106 105.021 14.1606C104.671 13.4107 104.172 12.7397 103.555 12.1884C102.848 11.6829 102.037 11.3422 101.182 11.1912C100.326 11.0402 99.4474 11.0828 98.6105 11.3158L80.2871 15.0968L68.3624 1.71789C67.178 0.613883 65.619 0 63.9998 0C62.3805 0 60.8216 0.613883 59.6371 1.71789L47.7124 15.0968L29.3891 11.3158C28.5521 11.0828 27.6735 11.0402 26.8179 11.1912C25.9623 11.3422 25.1513 11.6829 24.4447 12.1884C23.8275 12.7397 23.3287 13.4107 22.9787 14.1606C22.6288 14.9106 22.4348 15.7239 22.4088 16.551L20.9545 33.711L3.7946 40.6913C2.97071 40.9412 2.22118 41.3904 1.61239 41.9992C1.00361 42.608 0.554357 43.3575 0.304442 44.1814C0.0294633 44.9973 -0.060993 45.864 0.0395991 46.719C0.140191 47.574 0.429323 48.3961 0.886134 49.1258L10.7749 63.959L0.886134 78.7921C0.447351 79.5209 0.173765 80.3371 0.0846617 81.1832C-0.00444206 82.0292 0.0931055 82.8845 0.370427 83.6887C0.64775 84.4929 1.0981 85.2265 1.68972 85.8378C2.28135 86.4491 2.99986 86.9232 3.7946 87.2267L20.9545 94.207L22.4088 111.367C22.4348 112.194 22.6288 113.007 22.9787 113.757C23.3287 114.507 23.8275 115.178 24.4447 115.73C25.1513 116.235 25.9623 116.576 26.8179 116.727C27.6735 116.878 28.5521 116.835 29.3891 116.602L47.7124 112.821L59.6371 125.909C60.1829 126.528 60.8543 127.024 61.6065 127.363C62.3586 127.703 63.1745 127.879 63.9998 127.879C64.825 127.879 65.6409 127.703 66.3931 127.363C67.1453 127.024 67.8166 126.528 68.3624 125.909L80.2871 112.821L98.6105 116.602C99.4474 116.835 100.326 116.878 101.182 116.727C102.037 116.576 102.848 116.235 103.555 115.73C104.172 115.178 104.671 114.507 105.021 113.757C105.371 113.007 105.565 112.194 105.591 111.367L107.045 94.207L124.205 87.2267C125 86.9232 125.718 86.4491 126.31 85.8378C126.901 85.2265 127.352 84.4929 127.629 83.6887C127.906 82.8845 128.004 82.0292 127.915 81.1832C127.826 80.3371 127.552 79.5209 127.113 78.7921L117.225 63.959ZM46.549 84.6091L34.3334 75.302L31.1341 72.6844H30.8433L32.5884 76.7562L37.5328 88.3901L31.425 90.7168L21.2454 65.704L27.3531 63.3773L39.8595 72.6844L43.0588 75.302C42.5542 74.0075 41.9714 72.7448 41.3138 71.521L36.6602 59.5963L42.768 56.9787L52.9476 81.9914L46.549 84.6091ZM56.1469 80.828L45.9673 55.5244L65.1631 47.9624L67.1991 53.1977L54.4018 58.142L56.1469 62.7956L67.1991 58.142L69.235 63.0864L58.1828 67.4491L60.2188 72.9752L73.3068 67.74L75.3428 72.9752L56.1469 80.828ZM96.5745 64.2498L89.0125 53.4885L86.3949 49.1258H86.1041C86.5895 50.7494 86.978 52.4005 87.2675 54.0702L89.5942 67.1583L83.4865 69.7759L66.3265 47.3807L72.7251 44.7631L79.4146 54.361L83.1956 60.178C82.6918 57.9699 82.3035 55.737 82.0322 53.4885L79.9963 41.8547L85.8132 39.5279L92.5027 49.4167L95.9928 54.9427C95.9928 54.9427 95.4111 50.8709 94.8294 47.9624L93.0844 36.6194L99.1921 34.0018L102.682 61.923L96.5745 64.2498Z" fill="#E5E7EB"/>
</g>
<defs>
<clipPath id="clip0_221_2307">
<rect width="128" height="128" fill="white"/>
</clipPath>
</defs>
</svg>
