<svg width="640" height="128" viewBox="0 0 640 128" fill="none" xmlns="http://www.w3.org/2000/svg">
<path d="M32.1999 124.4C30.3999 124.4 28.5999 123.8 27.1999 122.8C24.3999 120.8 22.7999 117.2 23.3999 113.8L28.5999 81.6001L6.19991 58.6001C3.79991 56.2001 2.99991 52.6001 3.99991 49.2001C4.99991 46.0001 7.79991 43.6001 10.9999 43.2001L41.9999 38.2001L55.9999 8.8001C57.5999 5.6001 60.5999 3.6001 63.9999 3.6001C67.3999 3.6001 70.5999 5.6001 71.9999 8.8001L85.9999 38.0001L116.8 42.8001C120 43.4001 122.8 45.6001 123.8 48.8001C125 52.2001 124 55.8001 121.6 58.2001L99.3999 81.4001L104.6 113.8C105.2 117.4 103.8 120.8 100.8 122.8C97.9999 124.8 94.5999 125 91.5999 123.4L63.9999 108.4L36.3999 123.4C35.1999 124.2 33.5999 124.4 32.1999 124.4Z" fill="#E5E7EB"/>
<path d="M160.2 124.4C158.4 124.4 156.6 123.8 155.2 122.8C152.4 120.8 150.8 117.2 151.4 113.8L156.6 81.6001L134.2 58.6001C131.8 56.2001 131 52.6001 132 49.2001C133 46.0001 135.8 43.6001 139 43.2001L170 38.2001L184 8.8001C185.6 5.6001 188.6 3.6001 192 3.6001C195.4 3.6001 198.6 5.6001 200 8.8001L214 38.0001L244.8 42.8001C248 43.4001 250.8 45.6001 251.8 48.8001C253 52.2001 252 55.8001 249.6 58.2001L227.4 81.4001L232.6 113.8C233.2 117.4 231.8 120.8 228.8 122.8C226 124.8 222.6 125 219.6 123.4L192 108.4L164.4 123.4C163.2 124.2 161.6 124.4 160.2 124.4Z" fill="#E5E7EB"/>
<path d="M288.2 124.4C286.4 124.4 284.6 123.8 283.2 122.8C280.4 120.8 278.8 117.2 279.4 113.8L284.6 81.6001L262.2 58.6001C259.8 56.2001 259 52.6001 260 49.2001C261 46.0001 263.8 43.6001 267 43.2001L298 38.2001L312 8.8001C313.6 5.6001 316.6 3.6001 320 3.6001C323.4 3.6001 326.6 5.6001 328 8.8001L342 38.0001L372.8 42.8001C376 43.4001 378.8 45.6001 379.8 48.8001C381 52.2001 380 55.8001 377.6 58.2001L355.4 81.4001L360.6 113.8C361.2 117.4 359.8 120.8 356.8 122.8C354 124.8 350.6 125 347.6 123.4L320 108.4L292.4 123.4C291.2 124.2 289.6 124.4 288.2 124.4Z" fill="#E5E7EB"/>
<path d="M416.2 124.4C414.4 124.4 412.6 123.8 411.2 122.8C408.4 120.8 406.8 117.2 407.4 113.8L412.6 81.6001L390.2 58.6001C387.8 56.2001 387 52.6001 388 49.2001C389 46.0001 391.8 43.6001 395 43.2001L426 38.2001L440 8.8001C441.6 5.6001 444.6 3.6001 448 3.6001C451.4 3.6001 454.6 5.6001 456 8.8001L470 38.0001L500.8 42.8001C504 43.4001 506.8 45.6001 507.8 48.8001C509 52.2001 508 55.8001 505.6 58.2001L483.4 81.4001L488.6 113.8C489.2 117.4 487.8 120.8 484.8 122.8C482 124.8 478.6 125 475.6 123.4L448 108.4L420.4 123.4C419.2 124.2 417.6 124.4 416.2 124.4Z" fill="#E5E7EB"/>
<path d="M544.2 124.4C542.4 124.4 540.6 123.8 539.2 122.8C536.4 120.8 534.8 117.2 535.4 113.8L540.6 81.6001L518.2 58.6001C515.8 56.2001 515 52.6001 516 49.2001C517 46.0001 519.8 43.6001 523 43.2001L554 38.2001L568 8.8001C569.6 5.6001 572.6 3.6001 576 3.6001C579.4 3.6001 582.6 5.6001 584 8.8001L598 38.0001L628.8 42.8001C632 43.4001 634.8 45.6001 635.8 48.8001C637 52.2001 636 55.8001 633.6 58.2001L611.4 81.4001L616.6 113.8C617.2 117.4 615.8 120.8 612.8 122.8C610 124.8 606.6 125 603.6 123.4L576 108.4L548.4 123.4C547.2 124.2 545.6 124.4 544.2 124.4Z" fill="#E5E7EB"/>
</svg>
