<svg width="640" height="128" viewBox="0 0 640 128" fill="none" xmlns="http://www.w3.org/2000/svg">
<path d="M32.1999 124.4C30.3999 124.4 28.5999 123.8 27.1999 122.8C24.3999 120.8 22.7999 117.2 23.3999 113.8L28.5999 81.6001L6.19991 58.6001C3.79991 56.2001 2.99991 52.6001 3.99991 49.2001C4.99991 46.0001 7.79991 43.6001 10.9999 43.2001L41.9999 38.2001L55.9999 8.8001C57.5999 5.6001 60.5999 3.6001 63.9999 3.6001C67.3999 3.6001 70.5999 5.6001 71.9999 8.8001L85.9999 38.0001L116.8 42.8001C120 43.4001 122.8 45.6001 123.8 48.8001C125 52.2001 124 55.8001 121.6 58.2001L99.3999 81.4001L104.6 113.8C105.2 117.4 103.8 120.8 100.8 122.8C97.9999 124.8 94.5999 125 91.5999 123.4L63.9999 108.4L36.3999 123.4C35.1999 124.2 33.5999 124.4 32.1999 124.4ZM12.5999 52.0001C12.5999 52.0001 12.5999 52.2001 12.5999 52.4001L35.9999 76.4001C37.3999 77.8001 37.9999 80.0001 37.7999 82.0001L32.3999 115.4C32.3999 115.4 32.3999 115.4 32.3999 115.6L61.1999 100C62.9999 99.0001 65.1999 99.0001 67.1999 100L95.9999 115.6C95.9999 115.6 95.9999 115.6 95.9999 115.4L90.5999 81.8001C90.1999 79.8001 90.9999 77.8001 92.3999 76.2001L115.8 52.2001C116 52.0001 115.8 51.8001 115.8 51.8001L83.5999 46.8001C81.5999 46.4001 79.7999 45.2001 78.9999 43.2001L63.9999 12.8001L49.5999 43.4001C48.7999 45.2001 46.9999 46.6001 44.9999 47.0001L12.5999 52.0001Z" fill="#E5E7EB"/>
<path d="M160.2 124.4C158.4 124.4 156.6 123.8 155.2 122.8C152.4 120.8 150.8 117.2 151.4 113.8L156.6 81.6001L134.2 58.6001C131.8 56.2001 131 52.6001 132 49.2001C133 46.0001 135.8 43.6001 139 43.2001L170 38.2001L184 8.8001C185.6 5.6001 188.6 3.6001 192 3.6001C195.4 3.6001 198.6 5.6001 200 8.8001L214 38.0001L244.8 42.8001C248 43.4001 250.8 45.6001 251.8 48.8001C253 52.2001 252 55.8001 249.6 58.2001L227.4 81.4001L232.6 113.8C233.2 117.4 231.8 120.8 228.8 122.8C226 124.8 222.6 125 219.6 123.4L192 108.4L164.4 123.4C163.2 124.2 161.6 124.4 160.2 124.4ZM140.6 52.0001C140.6 52.0001 140.6 52.2001 140.6 52.4001L164 76.4001C165.4 77.8001 166 80.0001 165.8 82.0001L160.4 115.4C160.4 115.4 160.4 115.4 160.4 115.6L189.2 100C191 99.0001 193.2 99.0001 195.2 100L224 115.6C224 115.6 224 115.6 224 115.4L218.6 81.8001C218.2 79.8001 219 77.8001 220.4 76.2001L243.8 52.2001C244 52.0001 243.8 51.8001 243.8 51.8001L211.6 46.8001C209.6 46.4001 207.8 45.2001 207 43.2001L192 12.8001L177.6 43.4001C176.8 45.2001 175 46.6001 173 47.0001L140.6 52.0001Z" fill="#E5E7EB"/>
<path d="M288.2 124.4C286.4 124.4 284.6 123.8 283.2 122.8C280.4 120.8 278.8 117.2 279.4 113.8L284.6 81.6001L262.2 58.6001C259.8 56.2001 259 52.6001 260 49.2001C261 46.0001 263.8 43.6001 267 43.2001L298 38.2001L312 8.8001C313.6 5.6001 316.6 3.6001 320 3.6001C323.4 3.6001 326.6 5.6001 328 8.8001L342 38.0001L372.8 42.8001C376 43.4001 378.8 45.6001 379.8 48.8001C381 52.2001 380 55.8001 377.6 58.2001L355.4 81.4001L360.6 113.8C361.2 117.4 359.8 120.8 356.8 122.8C354 124.8 350.6 125 347.6 123.4L320 108.4L292.4 123.4C291.2 124.2 289.6 124.4 288.2 124.4ZM268.6 52.0001C268.6 52.0001 268.6 52.2001 268.6 52.4001L292 76.4001C293.4 77.8001 294 80.0001 293.8 82.0001L288.4 115.4C288.4 115.4 288.4 115.4 288.4 115.6L317.2 100C319 99.0001 321.2 99.0001 323.2 100L352 115.6C352 115.6 352 115.6 352 115.4L346.6 81.8001C346.2 79.8001 347 77.8001 348.4 76.2001L371.8 52.2001C372 52.0001 371.8 51.8001 371.8 51.8001L339.6 46.8001C337.6 46.4001 335.8 45.2001 335 43.2001L320 12.8001L305.6 43.4001C304.8 45.2001 303 46.6001 301 47.0001L268.6 52.0001Z" fill="#E5E7EB"/>
<path d="M416.2 124.4C414.4 124.4 412.6 123.8 411.2 122.8C408.4 120.8 406.8 117.2 407.4 113.8L412.6 81.6001L390.2 58.6001C387.8 56.2001 387 52.6001 388 49.2001C389 46.0001 391.8 43.6001 395 43.2001L426 38.2001L440 8.8001C441.6 5.6001 444.6 3.6001 448 3.6001C451.4 3.6001 454.6 5.6001 456 8.8001L470 38.0001L500.8 42.8001C504 43.4001 506.8 45.6001 507.8 48.8001C509 52.2001 508 55.8001 505.6 58.2001L483.4 81.4001L488.6 113.8C489.2 117.4 487.8 120.8 484.8 122.8C482 124.8 478.6 125 475.6 123.4L448 108.4L420.4 123.4C419.2 124.2 417.6 124.4 416.2 124.4ZM396.6 52.0001C396.6 52.0001 396.6 52.2001 396.6 52.4001L420 76.4001C421.4 77.8001 422 80.0001 421.8 82.0001L416.4 115.4C416.4 115.4 416.4 115.4 416.4 115.6L445.2 100C447 99.0001 449.2 99.0001 451.2 100L480 115.6C480 115.6 480 115.6 480 115.4L474.6 81.8001C474.2 79.8001 475 77.8001 476.4 76.2001L499.8 52.2001C500 52.0001 499.8 51.8001 499.8 51.8001L467.6 46.8001C465.6 46.4001 463.8 45.2001 463 43.2001L448 12.8001L433.6 43.4001C432.8 45.2001 431 46.6001 429 47.0001L396.6 52.0001Z" fill="#E5E7EB"/>
<path d="M544.2 124.4C542.4 124.4 540.6 123.8 539.2 122.8C536.4 120.8 534.8 117.2 535.4 113.8L540.6 81.6001L518.2 58.6001C515.8 56.2001 515 52.6001 516 49.2001C517 46.0001 519.8 43.6001 523 43.2001L554 38.2001L568 8.8001C569.6 5.6001 572.6 3.6001 576 3.6001C579.4 3.6001 582.6 5.6001 584 8.8001L598 38.0001L628.8 42.8001C632 43.4001 634.8 45.6001 635.8 48.8001C637 52.2001 636 55.8001 633.6 58.2001L611.4 81.4001L616.6 113.8C617.2 117.4 615.8 120.8 612.8 122.8C610 124.8 606.6 125 603.6 123.4L576 108.4L548.4 123.4C547.2 124.2 545.6 124.4 544.2 124.4ZM524.6 52.0001C524.6 52.0001 524.6 52.2001 524.6 52.4001L548 76.4001C549.4 77.8001 550 80.0001 549.8 82.0001L544.4 115.4C544.4 115.4 544.4 115.4 544.4 115.6L573.2 100C575 99.0001 577.2 99.0001 579.2 100L608 115.6C608 115.6 608 115.6 608 115.4L602.6 81.8001C602.2 79.8001 603 77.8001 604.4 76.2001L627.8 52.2001C628 52.0001 627.8 51.8001 627.8 51.8001L595.6 46.8001C593.6 46.4001 591.8 45.2001 591 43.2001L576 12.8001L561.6 43.4001C560.8 45.2001 559 46.6001 557 47.0001L524.6 52.0001Z" fill="#E5E7EB"/>
</svg>
