<svg width="128" height="128" viewBox="0 0 128 128" fill="none" xmlns="http://www.w3.org/2000/svg">
<g clip-path="url(#clip0_221_2309)">
<path fill-rule="evenodd" clip-rule="evenodd" d="M20.4797 46.1396C20.4797 20.6574 41.1372 0 66.6194 0C92.1016 0 112.759 20.6574 112.759 46.1396C112.759 70.1155 94.4716 89.8201 71.0845 92.0659V101.209H84.4797C86.9457 101.209 88.9448 103.208 88.9448 105.674C88.9448 108.14 86.9457 110.14 84.4797 110.14H71.0845V123.535C71.0845 126.001 69.0854 128 66.6193 128C64.1533 128 62.1542 126.001 62.1542 123.535V110.14H48.7587C46.2926 110.14 44.2935 108.14 44.2935 105.674C44.2935 103.208 46.2926 101.209 48.7587 101.209H62.1542V92.0659C38.7671 89.8201 20.4797 70.1155 20.4797 46.1396ZM103.829 46.1396C103.829 66.6853 87.1769 83.3416 66.633 83.349H66.6194H66.6057C46.0618 83.3416 29.41 66.6853 29.41 46.1396C29.41 25.5895 46.0692 8.93025 66.6194 8.93025C87.1696 8.93025 103.829 25.5895 103.829 46.1396Z" fill="#E5E7EB"/>
</g>
<defs>
<clipPath id="clip0_221_2309">
<rect width="128" height="128" fill="white"/>
</clipPath>
</defs>
</svg>
