<svg width="128" height="128" viewBox="0 0 128 128" fill="none" xmlns="http://www.w3.org/2000/svg">
<path d="M84.3999 59.4002H68.4V43.6002C68.4 41.2002 66.3999 39.2002 63.7999 39.2002C61.3999 39.2002 59.4 41.2002 59.4 43.8002V59.6002H43.5999C41.1999 59.6002 39.2 61.6002 39.2 64.2002C39.2 66.6002 41.1999 68.6002 43.7999 68.6002H59.5999V84.4002C59.5999 86.8002 61.5999 88.8002 64.1999 88.8002C66.5999 88.8002 68.5999 86.8002 68.5999 84.2002V68.4002H84.3999C86.7999 68.4002 88.8 66.4002 88.8 63.8002C88.8 61.4002 86.7999 59.4002 84.3999 59.4002Z" fill="#111928"/>
<path d="M64 3.6001C30.6 3.6001 3.59998 30.6001 3.59998 64.0001C3.59998 97.4001 30.8 124.6 64.2 124.6C97.6 124.6 124.8 97.4001 124.8 64.0001C124.6 30.6001 97.4 3.6001 64 3.6001ZM64 115.6C35.6 115.6 12.6 92.4001 12.6 64.0001C12.6 35.6001 35.6 12.6001 64 12.6001C92.4 12.6001 115.6 35.6001 115.6 64.0001C115.6 92.4001 92.4 115.6 64 115.6Z" fill="#111928"/>
</svg>
