<svg width="128" height="128" viewBox="0 0 128 128" fill="none" xmlns="http://www.w3.org/2000/svg">
<path d="M64 31C53 31 44 39.8 44 50.4C44 61 53 70 64 70C75 70 84 61.2 84 50.6C84 40 75 31 64 31ZM64 61C58 61 53 56.4 53 50.6C53 44.8 58 40 64 40C70 40 75 44.6 75 50.4C75 56.2 70 61 64 61Z" fill="#111928"/>
<path d="M64 3.6001C30.6 3.6001 3.59998 30.6001 3.59998 64.0001C3.59998 97.4001 30.6 124.6 64 124.6C97.4 124.6 124.6 97.4001 124.6 64.0001C124.6 30.6001 97.4 3.6001 64 3.6001ZM39.6 109.2V92.8001C39.6 86.4001 44.8 81.2001 51.2 81.2001H77.2C83.6 81.2001 88.8 86.4001 88.8 92.8001V109.2C81.6 113.2 73.2 115.4 64.2 115.4C55.2 115.6 46.8 113.2 39.6 109.2ZM97.6 103V92.8001C97.6 81.4001 88.4 72.2001 77 72.2001H51C39.6 72.2001 30.4 81.4001 30.4 92.8001V103C19.4 93.6001 12.4 79.6001 12.4 64.0001C12.6 35.6001 35.6 12.6001 64 12.6001C92.4 12.6001 115.6 35.8001 115.6 64.2001C115.6 79.6001 108.6 93.6001 97.6 103Z" fill="#111928"/>
</svg>
