<svg width="128" height="128" viewBox="0 0 128 128" fill="none" xmlns="http://www.w3.org/2000/svg">
<path d="M112.8 124.6H86.6C80.2 124.6 74.8 119.4 74.8 112.8V91.6C74.8 90 73.6 88.8 72 88.8H56C54.4 88.8 53.2 90 53.2 91.6V112.8C53.2 119.4 48 124.6 41.4 124.6H15.2C8.80002 124.6 3.40002 119.4 3.40002 112.8V45.4C3.40002 42 5.00002 39 7.80003 37.2L58.8 5C62 3 66 3 69 5L120 37.4C122.8 39.2 124.4 42.2 124.4 45.6V112.8C124.6 119.2 119.2 124.6 112.8 124.6ZM56 79.8H72C78.6 79.8 83.8 85 83.8 91.6V112.8C83.8 114.4 85 115.6 86.6 115.6H112.8C114.4 115.6 115.6 114.4 115.6 112.8V45.4C115.6 45.2 115.4 45 115.4 44.8L64.2 12.6C64 12.4 63.8 12.4 63.6 12.6L12.8 44.8C12.6 45 12.4 45.2 12.4 45.4V112.8C12.4 114.4 13.6 115.6 15.2 115.6H41.4C43 115.6 44.2 114.4 44.2 112.8V91.6C44.2 85.2 49.4 79.8 56 79.8Z" fill="#111928"/>
</svg>
