<svg width="128" height="128" viewBox="0 0 128 128" fill="none" xmlns="http://www.w3.org/2000/svg">
<path fill-rule="evenodd" clip-rule="evenodd" d="M104.01 18.4714L83.2873 39.1937C75.605 32.7547 65.7024 28.8779 54.8944 28.8779C30.4681 28.8779 10.6667 48.6793 10.6667 73.1055C10.6667 97.5317 30.4681 117.333 54.8944 117.333C79.3206 117.333 99.122 97.5317 99.122 73.1055C99.122 62.2975 95.2451 52.3949 88.8062 44.7125L109.528 23.9906V48.3901C109.528 50.5453 111.275 52.2925 113.431 52.2925C115.586 52.2925 117.333 50.5453 117.333 48.3901V14.6213C117.336 14.4175 117.323 14.2136 117.294 14.0115C117.267 13.8249 117.226 13.6398 117.173 13.4579C116.994 12.8545 116.667 12.2858 116.19 11.8095C115.777 11.3965 115.295 11.0955 114.781 10.9063C114.361 10.752 113.92 10.6721 113.478 10.6668C113.463 10.6666 113.447 10.6665 113.431 10.6665C113.431 10.6665 113.431 10.6665 113.431 10.6665L79.6094 10.6665C77.4542 10.6665 75.707 12.4137 75.707 14.5689C75.707 16.7242 77.4542 18.4714 79.6094 18.4714H104.01ZM54.8944 36.6828C34.7786 36.6828 18.4716 52.9898 18.4716 73.1055C18.4716 93.2212 34.7786 109.528 54.8944 109.528C75.0101 109.528 91.3171 93.2212 91.3171 73.1055C91.3171 52.9898 75.0101 36.6828 54.8944 36.6828Z" fill="#111928"/>
</svg>
