<svg width="128" height="128" viewBox="0 0 128 128" fill="none" xmlns="http://www.w3.org/2000/svg">
<path d="M116.2 6.39995C115.4 3.99995 112.8 2.79995 110.4 3.79995L95.8 9.19995C94 9.79995 92.8 11.6 92.8 13.4V35.4H25.2C17.8 35.4 11.6 41.4 11.6 49V70.8C11.6 77.8 17.2 83.8 24.2 84.4L92.8 89.6V91C92.8 94.4 90 97.2 86.6 97.2H30.2C22.6 97.2 16.4 103.4 16.4 111C16.4 118.6 22.6 124.8 30.2 124.8C37.8 124.8 44 118.6 44 111C44 109.4 43.6 107.6 43.2 106.2H63.2C62.6 107.8 62.4 109.4 62.4 111C62.4 118.6 68.6 124.8 76.2 124.8C83.8 124.8 90 118.6 90 111C90 109.2 89.6 107.6 89 106C96.2 104.8 101.8 98.6 101.8 91V16.8L113.6 12.6C115.8 11.4 117 8.79995 116.2 6.39995ZM92.8 80.4L24.8 75.4C22.4 75.2 20.6 73.2 20.6 70.8V48.8C20.6 46.2 22.6 44.2 25.2 44.2H92.8V80.4V80.4ZM35 110.6C35 113.2 32.8 115.4 30.2 115.4C27.6 115.4 25.4 113.2 25.4 110.6C25.4 108 27.6 105.8 30.2 105.8C32.8 105.8 35 108 35 110.6ZM76 115.6C73.4 115.6 71.2 113.4 71.2 110.8C71.2 108.2 73.4 106 76 106C78.6 106 80.8 108.2 80.8 110.8C80.8 113.4 78.8 115.6 76 115.6Z" fill="#111928"/>
</svg>
