<svg width="128" height="128" viewBox="0 0 128 128" fill="none" xmlns="http://www.w3.org/2000/svg">
<path d="M97.7999 17.5999H82.3999V14.1999C82.3999 8.1999 77.5999 3.3999 71.5999 3.3999H56.1999C50.1999 3.3999 45.3999 8.1999 45.3999 14.1999V17.5999H29.9999C24.1999 17.5999 19.3999 22.3999 19.3999 28.1999V34.1999C19.3999 38.5999 21.9999 42.1999 25.7999 43.7999L28.9999 113C29.3999 119.6 34.5999 124.6 41.1999 124.6H86.1999C92.7999 124.6 98.1999 119.4 98.3999 113L102 43.5999C105.8 41.9999 108.4 38.1999 108.4 33.9999V27.9999C108.4 22.3999 103.6 17.5999 97.7999 17.5999ZM54.5999 14.1999C54.5999 13.1999 55.3999 12.3999 56.3999 12.3999H71.7999C72.7999 12.3999 73.5999 13.1999 73.5999 14.1999V17.5999H54.7999V14.1999H54.5999ZM28.5999 28.1999C28.5999 27.3999 29.1999 26.5999 30.1999 26.5999H97.7999C98.5999 26.5999 99.3999 27.1999 99.3999 28.1999V34.1999C99.3999 34.9999 98.7999 35.7999 97.7999 35.7999H30.1999C29.3999 35.7999 28.5999 35.1999 28.5999 34.1999V28.1999V28.1999ZM86.3999 115.6H41.5999C39.7999 115.6 38.3999 114.2 38.3999 112.6L35.1999 44.7999H92.9999L89.7999 112.6C89.5999 114.2 88.1999 115.6 86.3999 115.6Z" fill="#111928"/>
<path d="M63.9999 64.7998C61.5999 64.7998 59.3999 66.7998 59.3999 69.3998V94.7998C59.3999 97.1998 61.3999 99.3998 63.9999 99.3998C66.3999 99.3998 68.5999 97.3998 68.5999 94.7998V69.3998C68.5999 66.7998 66.3999 64.7998 63.9999 64.7998Z" fill="#111928"/>
<path d="M80 68.7998C77.4 68.5998 75.4 70.3998 75.2 72.9998L74 90.5998C73.8 92.9998 75.6 95.1998 78.2 95.3998C78.4 95.3998 78.4 95.3998 78.6 95.3998C81 95.3998 83 93.5998 83 91.1998L84.2 73.5998C84.2 70.9998 82.4 68.9998 80 68.7998Z" fill="#111928"/>
<path d="M47.8 68.7998C45.4 68.9998 43.4 71.1998 43.6 73.5998L45 91.1998C45.2 93.5998 47.2 95.3998 49.4 95.3998C49.6 95.3998 49.6 95.3998 49.8 95.3998C52.2 95.1998 54.2 92.9998 54 90.5998L52.6 72.9998C52.6 70.3998 50.4 68.5998 47.8 68.7998Z" fill="#111928"/>
</svg>
