<svg width="128" height="128" viewBox="0 0 128 128" fill="none" xmlns="http://www.w3.org/2000/svg">
<path d="M64 118C61.4 118 58.8 117 56.8 115.2C52.2 111.2 48 107.6 44.2 104.4C32.8 94.6 22.8 86.4 15.8 78C7.59998 68 3.59998 58.6 3.59998 48C3.59998 37.8 7.19998 28.2 13.6 21.2C20.2 14 29.4 10 39.2 10C46.6 10 53.6 12.4 59.6 17C61.2 18.2 62.6 19.4 64 21C65.4 19.6 66.8 18.2 68.4 17C74.4 12.4 81.2 10 88.8 10C98.8 10 107.8 14 114.4 21.2C121 28.2 124.4 37.8 124.4 48C124.4 58.6 120.6 68 112.2 78C105.2 86.4 95.2 94.8 83.8 104.4C80 107.6 75.6 111.4 71 115.2C69.2 117 66.6 118 64 118ZM39.2 19C31.8 19 25 22 20 27.2C15.2 32.6 12.6 40 12.6 48C12.6 56.2 15.8 64 22.6 72.2C29.2 80 38.8 88.2 49.8 97.6C53.6 100.8 58 104.6 62.6 108.6C63.4 109.2 64.6 109.2 65.4 108.6C70 104.6 74.4 101 78.2 97.6C89.4 88 99 80 105.4 72.2C112.2 64 115.4 56.2 115.4 48C115.4 40 112.6 32.6 107.8 27.4C102.8 22 96 19 88.8 19C83.4 19 78.4 20.8 74 24C72.2 25.4 70.6 27 69 28.8C67.8 30.2 66 31.2 64 31.2C62 31.2 60.4 30.4 59 28.8C57.4 27 55.8 25.4 54 24C49.8 20.8 44.8 19 39.2 19Z" fill="#111928"/>
</svg>
