<svg width="128" height="128" viewBox="0 0 128 128" fill="none" xmlns="http://www.w3.org/2000/svg">
<path d="M64 105.4C24.4001 105.4 4.80005 67.5998 4.00005 65.9998C3.40005 64.7998 3.40005 63.1998 4.00005 61.9998C4.80005 60.3998 24.4001 22.7998 64 22.7998C103.6 22.7998 123.2 60.3998 124 61.9998C124.6 63.1998 124.6 64.7998 124 65.9998C123.2 67.5998 103.6 105.4 64 105.4ZM13.2 63.9998C17.6 71.3998 34.8 96.3998 64 96.3998C93.2001 96.3998 110.4 71.3998 114.8 63.9998C110.4 56.5998 93.2001 31.5998 64 31.5998C34.8 31.5998 17.6 56.5998 13.2 63.9998Z" fill="#111928"/>
<path d="M64 81C54.6 81 47 73.4 47 64C47 54.6 54.6 47 64 47C73.4 47 81 54.6 81 64C81 73.4 73.4 81 64 81ZM64 56C59.6 56 56 59.6 56 64C56 68.4 59.6 72 64 72C68.4 72 72 68.4 72 64C72 59.6 68.4 56 64 56Z" fill="#111928"/>
</svg>
