<svg width="108" height="120" viewBox="0 0 108 120" fill="none" xmlns="http://www.w3.org/2000/svg">
<g clip-path="url(#clip0_14_1548)">
<path d="M59.8095 35.7259C68.6871 31.0354 72.7528 21.307 68.8904 13.9969C65.0281 6.68682 54.7004 4.56324 45.8228 9.25376C36.9452 13.9443 32.8796 23.6727 36.7419 30.9828C40.6042 38.2929 50.932 40.4164 59.8095 35.7259Z" fill="black"/>
<path d="M16.5101 67.1299C17.3301 74.4799 25.3101 79.5299 34.1301 78.4399C34.1601 78.4399 34.2001 78.4299 34.2301 78.4299C34.2301 78.4299 62.4901 79.4599 106.96 38.3499C107.8 37.5699 107 36.1899 105.92 36.5399C94.6501 40.1699 64.9701 49.0199 43.5101 49.0199C43.5101 49.0199 14.5301 49.2399 16.5201 67.1299H16.5101Z" fill="black"/>
<path d="M64.25 81.6C64.88 80.59 63.64 79.48 62.69 80.2C47.93 91.37 25.54 95.53 15.07 96C7.27999 96.09 0.98999 101.31 0.98999 107.75C0.98999 114.19 7.38999 119.38 15.28 119.51C37.98 119.9 56.93 93.42 64.25 81.59V81.6Z" fill="black"/>
</g>
<defs>
<clipPath id="clip0_14_1548">
<rect width="108" height="119.239" fill="white" transform="translate(0 0.760864)"/>
</clipPath>
</defs>
</svg>
