<svg width="128" height="128" viewBox="0 0 128 128" fill="none" xmlns="http://www.w3.org/2000/svg">
<g clip-path="url(#clip0_382_2471)">
<path d="M70.8854 37.5341C81.407 32.499 86.2256 22.0558 81.648 14.2086C77.0704 6.36139 64.8301 4.08179 54.3086 9.11694C43.787 14.1521 38.9684 24.5953 43.546 32.4425C48.1236 40.2896 60.3638 42.5692 70.8854 37.5341Z" fill="#3758F9"/>
<path d="M19.5674 71.2456C20.5393 79.1356 29.997 84.5567 40.4504 83.3866C40.4859 83.3866 40.5333 83.3758 40.5689 83.3758C40.5689 83.3758 74.0622 84.4815 126.767 40.351C127.763 39.5137 126.815 38.0323 125.535 38.408C112.178 42.3048 77.0015 51.805 51.5674 51.805C51.5674 51.805 17.2208 52.0412 19.5793 71.2456H19.5674Z" fill="#3758F9"/>
<path d="M76.1482 86.7786C76.8948 85.6944 75.4252 84.5029 74.2993 85.2758C56.8059 97.2665 30.2696 101.732 17.8607 102.237C8.62815 102.333 1.17334 107.937 1.17334 114.85C1.17334 121.763 8.75853 127.334 18.1096 127.474C45.0133 127.893 67.4726 99.4671 76.1482 86.7679V86.7786Z" fill="#3758F9"/>
</g>
<defs>
<clipPath id="clip0_382_2471">
<rect width="128" height="128" fill="white"/>
</clipPath>
</defs>
</svg>
