<svg width="404" height="113" viewBox="0 0 404 113" fill="none" xmlns="http://www.w3.org/2000/svg">
<g clip-path="url(#clip0_218_2219)">
<path fill-rule="evenodd" clip-rule="evenodd" d="M67.8904 7.23699C71.7528 14.5471 67.6871 24.2755 58.8095 28.966C49.932 33.6565 39.6042 31.5329 35.7419 24.2229C31.8796 16.9128 35.9452 7.18437 44.8228 2.49385C53.7004 -2.19667 64.0281 -0.0730995 67.8904 7.23699ZM307.318 46.8233L307.316 46.8237C306.504 47.0322 305.676 47.245 304.83 47.46C304.808 47.3188 304.779 47.1972 304.752 47.0882C304.705 46.8962 304.668 46.7431 304.7 46.59C305.96 40.57 304.64 37.92 298.54 36.92C295.52 36.42 291.88 36.91 288.59 37.76C285.27 38.62 283.04 41.2 282.23 44.43C281.43 47.61 282.55 49.83 285.4 50.79C287.841 51.6085 290.397 52.2379 292.955 52.8677C294.023 53.1304 295.09 53.3933 296.15 53.67C296.62 53.7929 297.101 53.896 297.582 53.9991C298.237 54.1395 298.892 54.2798 299.52 54.47C306.07 56.42 308.47 59.93 307.21 65.62C305.9 71.53 301.1 76.39 294.31 78.33C287.88 80.16 281.89 80.01 276.67 77.53C273.2 75.88 271.09 73.19 270.51 69.38C269.8 64.73 270.54 63.88 276.13 63.25C276.145 63.7501 276.138 64.2597 276.131 64.77V64.7707V64.7714V64.7721V64.7728V64.7735C276.114 65.9252 276.098 67.0806 276.34 68.14C277.53 73.35 284.16 75.67 292.17 73.83C296.96 72.73 300 70.35 301.14 66.8C302.31 63.16 301.27 60.66 297.52 59.46C295.29 58.7468 292.936 58.2398 290.583 57.7331L290.583 57.733C289.538 57.508 288.493 57.283 287.46 57.04C287.106 56.9563 286.75 56.8769 286.394 56.7976L286.394 56.7975C285.432 56.5832 284.472 56.3692 283.56 56.07C277.18 54 275.14 51.03 276.24 45.55C277.44 39.6 281.58 35.01 288.1 32.79C294.68 30.55 300.72 30.74 305.93 33.49C310.53 35.92 312.02 40.63 310.04 46.13H310.03C309.146 46.3536 308.243 46.5857 307.318 46.8233ZM144.308 50.7941C143.206 55.4676 142.108 60.1235 141.012 64.7812C140.949 64.7908 140.887 64.7999 140.825 64.8087C140.772 64.8161 140.72 64.8234 140.668 64.8306L140.665 64.831C140.529 64.8499 140.394 64.8685 140.26 64.89C137.94 55.76 135.62 46.64 133.29 37.51C132.1 32.83 128.69 30.77 123.85 31.77C119.5 32.67 116.08 36.19 114.93 41.03C112.17 52.67 109.43 64.31 106.7 75.95C106.56 76.5331 106.478 77.1212 106.397 77.7073C106.363 77.9554 106.329 78.2031 106.29 78.45H116.2L118.831 67.2881C120.727 59.2426 122.603 51.2789 124.48 43.32C125.22 44.33 125.52 45.36 125.79 46.4C126.56 49.4167 127.323 52.4356 128.087 55.4545C129.613 61.4923 131.14 67.53 132.72 73.55C133.79 77.62 136.96 79.34 141.26 78.48C145.45 77.65 148.54 74.55 149.61 70.02C152.43 58.09 155.24 46.16 158.04 34.23C158.169 33.6655 158.248 33.0964 158.322 32.5541L158.322 32.5531L158.323 32.5519C158.358 32.2976 158.392 32.0492 158.43 31.81H148.78C147.278 38.2002 145.79 44.5115 144.309 50.7911L144.308 50.7941ZM189.75 69.89C185.73 76.48 177.04 80.44 169.1 79.44C161.91 78.53 157.5 74.95 156.92 68.09C156.24 60.02 160.59 51.62 167.38 47.35C173.93 43.23 183.14 42.65 188.68 46.02C193.88 49.18 195.18 56.76 191.36 62.64C190.95 63.28 189.38 63.82 188.48 63.83C183.913 63.905 179.362 63.8956 174.811 63.8862C173.294 63.8831 171.778 63.88 170.26 63.88H167.09C166.32 67.25 167.18 69.54 169.84 70.87C172.51 72.2 177.08 71.79 179.31 69.59C181.17 67.76 182.52 67.74 184.3 68.35C185.49 68.7535 186.723 69.0797 188.021 69.4227C188.588 69.5726 189.167 69.7257 189.76 69.89H189.75ZM168.7 57.79H183.14C183.91 53.6 182.56 51.74 178.79 51.48C173.97 51.15 170.57 53.26 168.69 57.79H168.7ZM252.72 78.3899H260.62V78.3999C261.171 76.0606 261.755 73.7465 262.334 71.4514L262.335 71.4508C263.647 66.2508 264.934 61.1483 265.76 56.0699C266.84 49.4199 263.46 45.0599 256.99 44.2499C253.53 43.8199 249.58 44.1799 245.88 44.9999C240.85 46.1099 237.67 49.3899 236.43 53.8399C237.74 54.202 239.066 54.5663 240.4 54.9328L240.427 54.9402L240.431 54.9412C241.887 55.3414 243.354 55.7443 244.82 56.1499C246.82 52.3799 249.39 50.9599 252.66 51.6099C255.92 52.2599 257.13 55.1099 255.81 58.5999C254.828 58.5999 253.853 58.5858 252.88 58.5717H252.88H252.88H252.88H252.879H252.879H252.879H252.879H252.879C250.682 58.5399 248.501 58.5083 246.29 58.6399C241.46 58.9399 236.68 60.1399 233.07 64.3099C229.91 67.9599 229.14 71.8299 230.98 75.2699C233.11 79.2499 237.51 80.3399 242.46 79.1899C245.076 78.583 247.663 77.3044 250.187 76.0571L250.187 76.057L250.188 76.0567C251.281 75.5162 252.363 74.9815 253.43 74.5099C253.382 74.7715 253.321 75.104 253.251 75.4875L253.109 76.2631L253.103 76.2932L253.102 76.301L252.946 77.1547C252.873 77.5526 252.797 77.968 252.72 78.3899ZM243.65 65.4199C247.54 64.3599 251.05 64.6799 254.35 65.7999C251.93 70.2799 247.23 73.1099 242.93 72.3599C241.61 72.1299 240.19 70.7999 239.98 69.5899C239.64 67.6399 241.32 66.0599 243.65 65.4199ZM379.81 45.63H375.24L375.25 45.64L364.35 91.89H369.14L373.47 73.51C379.23 83.3 393.05 80.03 399.03 71.47C403.42 65.18 405.02 58.78 403.32 52.6C400.81 43.48 389.27 42.02 380.31 49.52C380.081 49.7108 379.828 49.8813 379.509 50.0959L379.507 50.0974L379.502 50.1011L379.5 50.1019C379.32 50.2233 379.119 50.3588 378.89 50.52C379.24 48.67 379.52 47.18 379.81 45.63ZM375.57 66.43C375.52 63.75 376.11 60.94 377.38 58.25H377.39C377.435 58.16 377.48 58.0675 377.525 57.975C377.57 57.8825 377.615 57.79 377.66 57.7C380.35 52.44 384.48 49.6 389.49 49.46C394.64 49.32 397.94 52.1 398.26 57.28C398.5 61.14 397.47 65.04 394.84 68.8C391.99 72.86 387.86 75.03 383.32 74.87C379.13 74.72 376.12 72.16 375.67 68.1C375.61 67.55 375.58 66.99 375.57 66.43ZM358.57 68.7L359.935 69.0869C360.907 69.3625 361.891 69.6413 362.87 69.92C359.52 76.45 350.9 80.62 343.58 79.34C336.62 78.12 332.77 74.17 333.28 67.25C333.57 63.3 334.59 58.95 336.59 55.13C341.46 45.87 354.35 41.72 362.12 46.49C365.07 48.3 366.57 51.12 366.2 54.69C365.995 56.7123 365.445 58.7766 364.868 60.9403L364.867 60.9411C364.6 61.9442 364.327 62.9685 364.08 64.02H339.09C337.97 69.49 339.87 73.2 344.27 74.45C349.11 75.83 353.85 73.95 358.57 68.7ZM340.21 59.21H359.97C362.15 53.48 360.2 49.89 354.66 49.17C348.52 48.38 342.92 52.18 340.2 59.21H340.21ZM327.569 74.3801L327.57 74.37V74.38L327.569 74.3801ZM325.45 74.7C326.15 74.6 326.86 74.4901 327.569 74.3801C327.259 78.8206 326.827 79.2402 322.41 79.48C316.59 79.8 313.58 76.69 314.71 71.13C315.555 66.9896 316.552 62.8493 317.549 58.7053L317.55 58.7007L317.551 58.6961L317.553 58.6901C317.958 57.0041 318.364 55.3175 318.76 53.63C318.891 53.0685 319.025 52.5041 319.169 51.8929L319.354 51.1159L319.471 50.6176L319.56 50.24H313.75L314.84 45.6C315.435 45.5696 316.034 45.5392 316.642 45.5084L316.661 45.5074L316.662 45.5073C317.845 45.4473 319.056 45.3858 320.32 45.32C320.982 44.4347 321.22 43.2696 321.458 42.1019C321.988 39.5105 322.52 36.9064 327.69 37.32C327.335 38.8173 326.973 40.3581 326.589 41.9944C326.334 43.0792 326.069 44.206 325.79 45.39H335.28L334.19 50H324.78C323.92 53.63 323.14 56.94 322.36 60.25C322.141 61.1846 321.914 62.1182 321.688 63.0513L321.688 63.0525L321.687 63.054C321.148 65.275 320.609 67.4925 320.18 69.71C319.35 73.96 320.89 75.34 325.45 74.7ZM226.09 78.7099L218.5 60.9199L232.56 44.9999H232.33L224.8 44.9599H224.77H224.4H223.77C222.6 44.9599 221.37 45.5299 220.54 46.4699L213.41 54.5699L209.8 46.4199C209.4 45.5099 208.45 44.9599 207.3 44.9699L198.78 45.0399L205.66 60.9399L189.42 78.7299H195.82L198.35 78.7199C199.5 78.7199 200.7 78.1599 201.52 77.2399L210.25 67.5199L211.53 70.2499C212.55 72.5999 213.5 74.7799 214.58 76.8899C214.626 76.9813 214.683 77.0726 214.743 77.1683L214.743 77.1685L214.743 77.169C214.762 77.1988 214.781 77.2291 214.8 77.2599L214.86 77.3799C215.28 78.2699 216.21 78.7999 217.34 78.7899L219.71 78.7699H219.88C221.061 78.7794 222.306 78.762 223.654 78.7432L223.89 78.7399H223.96H224.64H225.48H226.08L226.09 78.7099ZM15.5101 60.3699C16.3301 67.7199 24.3101 72.7699 33.1301 71.6799C33.1451 71.6799 33.1626 71.6774 33.1801 71.6749C33.1976 71.6724 33.2151 71.6699 33.2301 71.6699C33.2301 71.6699 61.4901 72.6999 105.96 31.5899C106.8 30.8099 106 29.4299 104.92 29.7799C93.6501 33.4099 63.9701 42.2599 42.5101 42.2599C42.5101 42.2599 13.5301 42.4799 15.5201 60.3699H15.5101ZM61.69 73.44C62.64 72.72 63.88 73.83 63.25 74.84V74.83C55.93 86.66 36.98 113.14 14.28 112.75C6.38999 112.62 -0.0100098 107.43 -0.0100098 100.99C-0.0100098 94.55 6.27999 89.33 14.07 89.24C24.54 88.77 46.93 84.61 61.69 73.44Z" fill="white"/>
</g>
<defs>
<clipPath id="clip0_218_2219">
<rect width="403.98" height="112.76" fill="white"/>
</clipPath>
</defs>
</svg>
