<svg width="316" height="69" viewBox="0 0 316 69" fill="none" xmlns="http://www.w3.org/2000/svg">
<path fill-rule="evenodd" clip-rule="evenodd" d="M213.377 17.6741C214.359 17.4043 215.319 17.1407 216.257 16.8867H216.268C218.37 10.6434 216.788 5.29679 211.906 2.53837C206.375 -0.583306 199.964 -0.798986 192.98 1.74376C186.06 4.2638 181.665 9.47416 180.391 16.2283C179.224 22.449 181.389 25.8204 188.161 28.1701C189.129 28.5098 190.148 28.7527 191.169 28.9959L191.169 28.9959L191.17 28.9961C191.547 29.0861 191.925 29.1762 192.301 29.2712C193.398 29.547 194.506 29.8024 195.616 30.0579C198.113 30.6331 200.612 31.2087 202.979 32.0183C206.959 33.3805 208.063 36.2184 206.821 40.3504C205.611 44.3802 202.384 47.0818 197.3 48.3305C188.798 50.4192 181.761 47.7856 180.498 41.8715C180.24 40.6688 180.258 39.3573 180.275 38.05V38.0492V38.0484V38.0476C180.283 37.4678 180.291 36.8888 180.275 36.3206C174.341 37.0357 173.556 38.0006 174.309 43.2791C174.925 47.604 177.165 50.6576 180.848 52.5306C186.389 55.3457 192.747 55.516 199.572 53.4387C206.779 51.2365 211.874 45.7196 213.264 39.0109C214.602 32.5518 212.054 28.5675 205.102 26.3539C204.435 26.138 203.74 25.9787 203.045 25.8194L203.045 25.8193C202.534 25.7023 202.024 25.5852 201.525 25.4458C200.4 25.1317 199.267 24.8333 198.134 24.535C195.419 23.82 192.706 23.1057 190.114 22.1765C187.089 21.0868 185.9 18.5667 186.749 14.957C187.609 11.2904 189.976 8.36171 193.5 7.38547C196.992 6.42059 200.856 5.86437 204.062 6.43194C210.536 7.5671 211.937 10.5753 210.6 17.4089C210.566 17.5827 210.606 17.7565 210.655 17.9745C210.683 18.0982 210.715 18.2362 210.738 18.3965C211.635 18.1526 212.514 17.9113 213.375 17.6747L213.375 17.6746L213.377 17.6741ZM36.8553 38.0587C38.0189 32.7714 39.1844 27.4861 40.3543 22.1808L40.3549 22.1779L40.359 22.1593C41.9296 15.0371 43.5081 7.87883 45.1005 0.631252H55.3434C55.3028 0.902862 55.2665 1.18487 55.2293 1.47359L55.2293 1.47383L55.2292 1.47402L55.2292 1.47466L55.2291 1.47519L55.229 1.47562L55.229 1.47597C55.1498 2.09154 55.0666 2.73756 54.9294 3.37833C51.9574 16.9207 48.9748 30.4631 45.9815 44.0055C44.8458 49.1478 41.5659 52.6667 37.1185 53.6089C32.5543 54.5851 29.1896 52.6327 28.0538 48.0126C26.3767 41.1789 24.7563 34.3251 23.1358 27.4713C22.3256 24.0444 21.5154 20.6175 20.6981 17.1932C20.4115 16.0126 20.093 14.8434 19.3076 13.6969C17.3134 22.7411 15.3193 31.7907 13.3046 40.9334L10.5189 53.5749H0C0.0410403 53.2946 0.0773855 53.0134 0.113783 52.7318C0.199763 52.0665 0.286037 51.3989 0.435186 50.737C3.33291 37.5238 6.24126 24.3106 9.17083 11.0974C10.3915 5.60323 14.0216 1.60749 18.6389 0.585847C23.7762 -0.549307 27.3957 1.78911 28.6588 7.10163C31.132 17.4656 33.5945 27.8182 36.0571 38.1822C36.1992 38.1578 36.3414 38.1368 36.4852 38.1155L36.4855 38.1154L36.4858 38.1154L36.4861 38.1153L36.4862 38.1153L36.4863 38.1153L36.4864 38.1153L36.4865 38.1153L36.4867 38.1152C36.6081 38.0973 36.7307 38.0791 36.8553 38.0587ZM66.6691 54.6986C75.0969 55.8338 84.3208 51.3386 88.5877 43.8579H88.5984C87.9689 43.6715 87.3542 43.4977 86.7524 43.3275L86.7523 43.3275L86.7522 43.3275L86.7521 43.3274C85.3752 42.9381 84.0659 42.5679 82.8029 42.1098C80.9136 41.4173 79.4806 41.44 77.5063 43.5174C75.1393 46.0147 70.2885 46.4801 67.4545 44.9704C64.6311 43.4606 63.7182 40.8611 64.5355 37.0356H67.9003C69.5111 37.0356 71.1212 37.0392 72.7313 37.0427C77.5614 37.0534 82.3916 37.064 87.2397 36.9789C88.195 36.9675 89.8615 36.3545 90.2967 35.628C94.3514 28.9533 92.9715 20.3489 87.452 16.7618C81.5716 12.9363 71.7958 13.5947 64.8434 18.2715C57.6362 23.1187 53.0189 32.6539 53.7407 41.8146C54.3564 49.6018 59.0373 53.6657 66.6691 54.6986ZM81.5716 30.1226H66.2445H66.2339C68.2294 24.9803 71.8382 22.5851 76.9544 22.9597C80.956 23.2549 82.3889 25.3663 81.5716 30.1226ZM163.812 53.5067H155.426C155.57 52.6711 155.709 51.8576 155.832 51.1341C155.974 50.3046 156.095 49.5934 156.18 49.1023C155.047 49.6377 153.899 50.2447 152.738 50.8584C150.059 52.2744 147.313 53.7258 144.536 54.4148C139.282 55.7203 134.612 54.4829 132.351 49.965C130.398 46.0601 131.215 41.667 134.569 37.5237C138.401 32.7901 143.475 31.428 148.601 31.0874C150.948 30.9379 153.264 30.9738 155.595 31.01C156.628 31.026 157.663 31.042 158.706 31.042C160.107 27.0803 158.823 23.8451 155.363 23.1073C151.892 22.3694 149.164 23.9813 147.041 28.2609C145.489 27.8018 143.937 27.3458 142.396 26.8928L142.389 26.891L142.383 26.8891C140.956 26.4697 139.537 26.0529 138.136 25.6387C139.452 20.5872 142.827 16.8639 148.166 15.6039C152.094 14.6731 156.286 14.2644 159.959 14.7525C166.826 15.672 170.414 20.6213 169.268 28.1701C168.391 33.9349 167.025 39.727 165.632 45.6299L165.632 45.63C165.017 48.2354 164.397 50.8624 163.812 53.5181V53.5067ZM157.157 39.2151C153.654 37.9437 149.928 37.5805 145.799 38.7838C143.326 39.5102 141.543 41.3038 141.904 43.5173C142.127 44.8909 143.634 46.4006 145.035 46.6617C149.599 47.5131 154.588 44.3006 157.157 39.2151ZM285.474 16.3191H290.325C290.017 18.0786 289.72 19.77 289.348 21.87C289.596 21.684 289.812 21.5281 290.006 21.3885L290.006 21.3882C290.344 21.1448 290.613 20.9513 290.855 20.7349C300.366 12.2212 312.615 13.8785 315.279 24.2311C317.084 31.2464 315.385 38.5114 310.726 45.6515C304.378 55.3684 289.709 59.0804 283.595 47.9672L278.999 68.8314H273.915L285.485 16.3305L285.474 16.3191ZM287.745 30.6448C286.397 33.6983 285.771 36.8881 285.824 39.9303C285.835 40.566 285.867 41.2017 285.93 41.826C286.408 46.4348 289.603 49.3408 294.05 49.511C298.869 49.6927 303.253 47.2294 306.278 42.6206C309.07 38.3525 310.163 33.9254 309.908 29.5437C309.569 23.6636 306.066 20.5078 300.599 20.6668C295.282 20.8257 290.898 24.0495 288.043 30.0204C288.023 30.0628 288.003 30.1056 287.983 30.1488C287.955 30.2097 287.927 30.2711 287.899 30.3326C287.852 30.4376 287.804 30.5426 287.756 30.6448H287.745ZM269.234 42.948C268.746 42.8001 268.26 42.653 267.78 42.5071C262.77 48.4667 257.738 50.6008 252.601 49.0343C247.931 47.6153 245.914 43.4039 247.103 37.1946H273.628C273.89 36.0007 274.18 34.8375 274.464 33.6986C275.077 31.2425 275.661 28.8992 275.878 26.6036C276.271 22.5511 274.679 19.35 271.548 17.2954C263.3 11.8807 249.618 16.5916 244.449 27.1031C242.326 31.4394 241.244 36.3773 240.936 40.8612C240.394 48.7164 244.481 53.2003 251.869 54.5852C259.638 56.0382 268.788 51.3046 272.344 43.892C271.316 43.5792 270.284 43.2664 269.263 42.957L269.242 42.9504L269.234 42.948ZM269.266 31.7345H248.292H248.281C251.168 23.7544 257.112 19.4408 263.629 20.3376C269.51 21.1549 271.58 25.2301 269.266 31.7345ZM234.875 48.9435L234.874 48.9549L234.874 48.955C234.121 49.0798 233.367 49.2046 232.625 49.3181C227.785 50.0446 226.15 48.478 227.031 43.6536C227.487 41.1361 228.059 38.6186 228.631 36.0971L228.631 36.0961C228.872 35.0366 229.113 33.9763 229.345 32.9151C230.173 29.1577 231.001 25.4004 231.914 21.2798H241.902L243.059 16.0467H232.986C233.282 14.7045 233.562 13.427 233.832 12.1971L233.834 12.1922C234.242 10.3347 234.626 8.58573 235.002 6.886C229.515 6.41647 228.95 9.3725 228.388 12.3142C228.135 13.6397 227.882 14.9623 227.18 15.9672C225.838 16.042 224.552 16.1118 223.296 16.1799L223.289 16.1803C222.64 16.2155 221.999 16.2503 221.363 16.2851L220.206 21.5522H226.373C226.223 22.2333 226.087 22.8487 225.959 23.4272C225.805 24.1215 225.663 24.7626 225.524 25.4004C225.102 27.3215 224.67 29.2416 224.238 31.1611L224.238 31.1612L224.238 31.1626C223.18 35.8663 222.122 40.5659 221.225 45.2656C220.026 51.577 223.221 55.1074 229.398 54.7441C234.086 54.4719 234.545 53.9956 234.874 48.9549L234.875 48.9548V48.9435ZM119.104 33.6755L127.16 53.8699L127.15 53.904H126.513H125.621H124.899H124.825L124.577 53.9077C123.144 53.9291 121.823 53.9488 120.569 53.938H120.388L117.873 53.9608C116.673 53.9721 115.686 53.3705 115.24 52.3602L115.177 52.224C115.156 52.1888 115.136 52.1542 115.116 52.1201C115.052 52.0114 114.992 51.9077 114.943 51.804C113.797 49.4088 112.788 46.9342 111.706 44.2665L110.347 41.1676L101.081 52.2013C100.21 53.2456 98.9366 53.8813 97.7159 53.8813L95.0305 53.8927H88.2373L105.475 33.6982L98.1723 15.6493L107.216 15.5698C108.436 15.5585 109.445 16.1828 109.869 17.2158L113.701 26.4673L121.269 17.2726C122.15 16.2055 123.456 15.5585 124.698 15.5585H125.366H125.759H125.791L133.784 15.6039H134.028L119.104 33.6755Z" fill="#3758F9"/>
</svg>
